<svg version="1.0" xmlns="http://www.w3.org/2000/svg" width="1410.000000ptpx" height="976.000000ptpx" viewBox="0 0 1410.000000 976.000000" preserveAspectRatio="xMidYMid meet" transform="rotate(0) scale(1, 1)">
<metadata>
Created by potrace 1.16, written by Peter Selinger 2001-2019
</metadata>
<g transform="translate(0.000000,976.000000) scale(0.100000,-0.100000)" fill="#ffffff" stroke="none">
<path d="M4246 7439 c-315 -33 -613 -162 -856 -372 -222 -191 -400 -482 -474&#10;-773 -37 -147 -50 -276 -43 -449 10 -243 55 -418 164 -634 34 -68 60 -128 57&#10;-133 -3 -5 -83 -47 -177 -94 -171 -86 -171 -86 -205 -45 -47 57 -100 82 -186&#10;88 -142 11 -235 -29 -281 -120 -25 -51 -25 -51 -25 -660 0 -609 0 -609 26&#10;-658 48 -87 142 -127 280 -116 114 8 171 46 216 142 23 50 23 50 471 53 297 1&#10;454 -1 467 -8 18 -9 20 -22 20 -102 0 -73 4 -101 21 -135 23 -47 80 -98 148&#10;-133 215 -108 794 -114 1036 -10 77 33 150 93 174 143 17 34 21 62 21 135 0&#10;80 2 93 19 102 13 6 177 10 466 10 416 0 446 -1 451 -17 27 -84 57 -124 118&#10;-156 34 -18 58 -21 141 -22 117 0 159 12 210 62 72 70 70 45 73 667 2 346 -1&#10;585 -7 625 -20 127 -94 188 -238 198 -115 8 -181 -13 -243 -78 -48 -50 -48&#10;-50 -208 30 -88 44 -163 85 -167 91 -4 6 20 64 54 129 65 127 119 276 148 411&#10;14 67 18 130 18 300 0 238 -14 330 -77 509 -237 673 -903 1095 -1612 1020z&#10;m334 -204 c610 -92 1074 -578 1140 -1195 26 -235 -24 -508 -133 -725 -104&#10;-209 -273 -400 -462 -523 -152 -98 -170 -112 -196 -150 -42 -62 -49 -118 -42&#10;-343 5 -169 4 -211 -8 -225 -48 -58 -377 -97 -624 -75 -140 13 -333 47 -351&#10;62 -7 6 -13 94 -17 246 -9 326 -21 356 -183 454 -169 102 -291 215 -413 383&#10;-246 340 -312 791 -174 1196 141 413 495 747 913 862 176 48 373 60 550 33z&#10;m-1271 -2402 c92 -93 201 -180 299 -238 105 -63 97 -32 95 -393 -1 -173 -4&#10;-321 -7 -329 -7 -18 -905 -20 -924 -1 -16 16 -17 779 -2 809 6 11 105 67 228&#10;129 119 60 219 109 220 109 2 1 43 -38 91 -86z m2489 -27 c114 -57 213 -111&#10;220 -119 9 -11 12 -113 10 -418 l-3 -404 -465 0 c-465 0 -465 0 -468 307 -3&#10;368 -5 359 93 414 98 54 208 138 310 237 50 47 91 86 93 87 1 0 96 -47 210&#10;-104z m-3253 20 c18 -13 19 -40 20 -580 2 -533 1 -568 -16 -577 -25 -13 -113&#10;-11 -127 3 -9 9 -12 151 -12 580 0 529 1 568 18 577 25 15 95 13 117 -3z&#10;m3821 0 c18 -14 19 -33 21 -563 2 -428 0 -553 -10 -573 -11 -21 -20 -25 -68&#10;-28 -40 -2 -59 1 -68 12 -10 11 -12 146 -12 578 0 521 2 564 18 575 23 17 95&#10;16 119 -1z m-1478 -1145 c2 -172 2 -172 -24 -196 -31 -29 -122 -60 -219 -75&#10;-91 -15 -424 -15 -506 0 -94 16 -186 48 -219 77 -30 25 -30 25 -30 195 0 195&#10;-23 178 190 142 81 -14 158 -18 335 -17 207 0 241 3 340 25 61 14 115 24 120&#10;23 6 -1 11 -69 13 -174z"/>
<path d="M4348 5454 c-41 -22 -50 -68 -46 -241 3 -150 4 -153 29 -179 39 -38&#10;99 -39 136 -1 28 28 28 28 28 203 0 176 0 176 -33 205 -36 32 -72 37 -114 13z"/>
<path d="M3923 5339 c-34 -10 -63 -50 -63 -88 0 -31 128 -273 161 -303 40 -38&#10;81 -37 120 1 46 47 40 83 -37 230 -36 69 -74 133 -83 142 -22 22 -59 29 -98&#10;18z"/>
<path d="M4795 5336 c-24 -11 -45 -40 -103 -149 -84 -157 -90 -191 -43 -238&#10;37 -36 79 -38 118 -5 15 13 59 84 97 158 62 119 69 137 62 171 -11 57 -74 87&#10;-131 63z"/>
<path d="M7318 6069 c-17 -9 -18 -50 -18 -629 0 -602 1 -620 19 -630 28 -15&#10;223 -13 244 3 15 10 17 38 19 212 3 200 3 200 117 200 115 0 115 0 183 -195&#10;37 -107 68 -201 68 -207 0 -10 36 -13 145 -13 131 0 145 2 145 18 0 9 -36 115&#10;-81 234 -81 218 -81 218 -16 288 84 89 111 164 111 310 1 183 -64 304 -197&#10;370 -50 25 -83 32 -167 40 -142 13 -550 12 -572 -1z m558 -248 c75 -34 111&#10;-110 99 -207 -8 -66 -39 -113 -90 -139 -50 -24 -275 -36 -300 -15 -12 10 -15&#10;44 -15 190 0 97 3 180 7 183 3 4 63 7 132 7 101 0 134 -4 167 -19z"/>
<path d="M9589 5993 c-1 -5 -4 -60 -8 -123 -6 -115 -6 -115 -51 -120 -45 -5&#10;-45 -5 -48 -117 -3 -112 -3 -112 45 -115 48 -3 48 -3 55 -243 5 -132 13 -267&#10;19 -300 15 -85 48 -131 117 -163 50 -23 70 -27 157 -27 55 0 123 6 151 13 52&#10;13 52 13 46 100 -8 133 -4 129 -105 124 -121 -6 -118 -14 -115 264 3 219 3&#10;219 103 224 55 3 106 9 113 13 17 12 17 201 -1 215 -7 6 -58 13 -113 14 -99 3&#10;-99 3 -102 126 -3 122 -3 122 -132 122 -72 0 -131 -3 -131 -7z"/>
<path d="M8740 5764 c-193 -52 -283 -207 -283 -489 1 -240 64 -379 203 -444&#10;50 -23 69 -26 202 -29 139 -4 228 4 347 30 54 12 54 12 49 105 -3 52 -7 96&#10;-10 98 -2 3 -49 0 -104 -5 -164 -16 -303 -13 -344 8 -37 18 -88 101 -75 122 4&#10;6 91 10 248 10 133 0 252 3 264 6 28 8 38 60 38 204 0 168 -43 266 -148 337&#10;-86 58 -265 80 -387 47z m244 -253 c14 -13 30 -45 36 -72 19 -77 13 -80 -149&#10;-77 -135 3 -136 3 -139 27 -6 40 27 111 62 132 45 29 155 23 190 -10z"/>
<path d="M10570 5749 c-207 -36 -304 -192 -305 -489 0 -102 4 -139 23 -200 60&#10;-195 178 -274 407 -275 217 0 338 79 397 259 20 62 23 91 23 226 0 136 -3 164&#10;-24 228 -57 176 -164 250 -366 258 -55 1 -125 -1 -155 -7z m215 -238 c43 -25&#10;62 -66 73 -161 18 -161 -9 -283 -72 -321 -43 -26 -130 -25 -174 1 -57 35 -74&#10;91 -73 238 1 69 6 142 11 163 11 40 57 86 93 94 54 11 63 12 87 7 14 -2 38&#10;-12 55 -21z"/>
<path d="M7282 4588 c-7 -7 -12 -31 -12 -55 0 -43 0 -43 224 -43 139 0 227 -4&#10;231 -10 3 -5 -91 -148 -211 -317 -119 -169 -223 -322 -230 -340 -8 -18 -14&#10;-53 -14 -78 0 -45 0 -45 295 -45 295 0 295 0 295 50 0 50 0 50 -220 50 -187 0&#10;-220 2 -220 15 0 12 133 209 377 558 56 78 58 84 62 154 3 73 3 73 -281 73&#10;-208 0 -287 -3 -296 -12z"/>
<path d="M8215 4346 c-70 -11 -70 -11 -73 -55 -3 -43 -3 -43 151 -36 153 7&#10;153 7 181 -25 22 -27 26 -41 24 -79 -3 -46 -3 -46 -113 -59 -174 -20 -236 -49&#10;-264 -125 -19 -50 -13 -137 14 -195 21 -45 32 -56 72 -74 39 -17 60 -20 127&#10;-15 45 3 105 13 134 23 50 16 55 17 82 0 16 -9 53 -18 82 -19 53 -2 53 -2 56&#10;40 3 40 1 43 -32 57 -36 15 -36 15 -36 200 0 102 -5 208 -11 236 -14 65 -59&#10;113 -122 129 -56 14 -178 13 -272 -3z m293 -439 c3 -88 3 -88 -33 -103 -19 -8&#10;-62 -17 -95 -21 -99 -10 -150 26 -150 106 0 55 39 87 117 96 32 4 63 8 68 10&#10;6 2 28 3 50 2 40 -2 40 -2 43 -90z"/>
<path d="M11498 4348 c-68 -10 -68 -10 -68 -55 0 -45 0 -45 150 -38 149 7 149&#10;7 180 -23 23 -24 30 -39 30 -70 0 -22 -6 -44 -12 -49 -7 -6 -58 -15 -113 -21&#10;-206 -23 -265 -70 -265 -210 0 -91 28 -146 91 -180 38 -21 54 -23 124 -19 44&#10;2 106 12 138 22 54 18 59 18 86 2 40 -23 107 -33 126 -17 8 7 15 26 15 42 0&#10;22 -8 33 -34 49 -19 11 -37 30 -40 42 -3 12 -6 109 -6 216 0 178 -2 196 -21&#10;231 -36 63 -86 84 -209 86 -58 1 -135 -2 -172 -8z m290 -441 c3 -88 3 -88 -34&#10;-103 -21 -9 -70 -18 -108 -21 -62 -5 -74 -2 -97 16 -48 37 -47 127 2 163 24&#10;18 134 37 199 34 35 -1 35 -1 38 -89z"/>
<path d="M12437 4350 c-21 -6 -47 -15 -58 -21 -16 -8 -25 -7 -38 5 -13 12 -27&#10;14 -62 8 -44 -8 -44 -8 -44 -322 0 -315 0 -315 58 -318 57 -3 57 -3 57 241 0&#10;179 3 248 13 260 18 25 92 47 157 47 115 0 130 -38 130 -339 0 -225 1 -228 70&#10;-216 41 7 41 7 38 264 -3 250 -4 257 -28 306 -34 69 -72 88 -174 91 -45 2 -98&#10;-1 -119 -6z"/>
<path d="M8950 3874 c0 -475 0 -475 53 -472 52 3 52 3 57 138 5 135 5 135 110&#10;135 163 1 232 34 279 134 25 53 26 65 26 211 0 140 -2 160 -23 205 -29 63 -48&#10;84 -97 106 -50 23 -162 25 -231 4 -42 -13 -50 -13 -64 0 -10 9 -36 15 -63 15&#10;-47 0 -47 0 -47 -476z m354 356 c47 -42 60 -86 60 -210 1 -139 -20 -191 -91&#10;-222 -39 -17 -59 -20 -121 -14 -40 3 -78 8 -83 12 -5 3 -9 94 -9 203 0 223 -2&#10;216 80 244 74 26 124 22 164 -13z"/>
<path d="M9902 4332 c-61 -22 -87 -44 -112 -92 -54 -107 -54 -334 1 -441 43&#10;-85 137 -125 275 -116 99 6 164 33 193 81 39 62 54 150 48 281 -6 172 -32 231&#10;-122 278 -58 30 -209 35 -283 9z m205 -81 c67 -31 78 -62 78 -221 0 -111 -3&#10;-141 -18 -168 -26 -48 -72 -72 -135 -72 -126 0 -165 54 -166 230 0 119 13 176&#10;48 209 46 43 126 52 193 22z"/>
<path d="M10610 3887 c0 -347 3 -466 12 -475 7 -7 31 -12 55 -12 42 0 42 0 45&#10;138 3 137 3 137 108 138 131 0 182 16 237 70 54 54 65 92 70 245 8 199 -28&#10;298 -121 340 -52 23 -167 25 -232 3 -42 -14 -47 -14 -63 0 -11 10 -36 16 -64&#10;16 -47 0 -47 0 -47 -463z m336 358 c58 -24 79 -84 79 -225 0 -97 -3 -121 -21&#10;-154 -35 -67 -62 -81 -163 -81 -60 0 -93 4 -104 14 -15 12 -17 39 -17 206 0&#10;215 -1 211 76 239 51 19 106 19 150 1z"/>
<path d="M2415 3406 c-42 -19 -90 -74 -105 -120 -33 -104 56 -422 136 -485 32&#10;-25 47 -26 79 -5 49 32 101 157 135 325 21 102 20 150 -5 199 -41 81 -158 122&#10;-240 86z"/>
<path d="M6222 3399 c-24 -12 -55 -38 -70 -57 -25 -33 -27 -42 -26 -131 1&#10;-186 100 -431 175 -431 79 0 180 236 183 426 1 82 -1 94 -26 131 -51 77 -152&#10;103 -236 62z"/>
<path d="M4290 3024 c-97 -35 -170 -109 -207 -206 -55 -150 60 -644 196 -842&#10;37 -53 75 -76 126 -76 53 0 116 63 165 164 127 263 193 648 133 778 -52 114&#10;-162 186 -296 194 -51 3 -85 0 -117 -12z"/>
</g>
</svg>